<svg width="59" height="72" viewBox="0 0 59 72" fill="none" xmlns="http://www.w3.org/2000/svg">
<path d="M53.616 25.2139C53.7084 23.9425 53.2702 22.7981 52.5467 22.1615C53.1303 21.4407 53.3983 20.3128 53.1788 19.1227C52.9464 17.8695 52.2329 16.8725 51.3712 16.4398C51.7536 15.5946 51.728 14.4356 51.2139 13.3397C50.6724 12.1853 49.7302 11.4023 48.7871 11.2011C48.9426 10.2873 48.6252 9.1722 47.8504 8.24192C47.0345 7.26223 45.9249 6.74266 44.9617 6.78749C44.8812 5.8636 44.2912 4.86562 43.3069 4.16128C42.2696 3.42034 41.0649 3.19806 40.1438 3.48437C39.8318 2.6108 39.0095 1.79394 37.8789 1.36218C36.6879 0.907557 35.4658 0.997201 34.648 1.50762C34.1257 0.741075 33.1232 0.159303 31.9194 0.0275804C30.6524 -0.11146 29.4926 0.285536 28.8303 0.98531C28.1305 0.376095 27.0136 0.0669142 25.8162 0.243458C24.5548 0.430065 23.533 1.10605 23.0693 1.95219C22.2387 1.53964 21.0797 1.52318 19.9656 1.99701C18.7929 2.49646 17.9751 3.40936 17.7409 4.34422C16.8326 4.15579 15.7075 4.43204 14.7497 5.17298C13.7408 5.95233 13.1819 7.0427 13.191 8.00683C12.2644 8.05348 11.2463 8.6069 10.5072 9.56463C9.72875 10.5745 9.46257 11.7701 9.71595 12.7013C8.8314 12.9812 7.98618 13.7733 7.51326 14.8875C7.01564 16.0611 7.06138 17.2859 7.54162 18.122C6.75677 18.6159 6.13933 19.5975 5.9637 20.7949C5.86856 21.448 5.91888 22.0755 6.0817 22.6262C5.8832 23.1128 5.76886 23.6717 5.76886 24.2672C5.76886 25.5423 6.28934 26.6519 7.05772 27.2337C6.52809 27.9957 6.3424 29.1391 6.64792 30.3099C6.97082 31.543 7.75475 32.4852 8.64479 32.8547C8.32555 33.7256 8.4344 34.8791 9.02715 35.9347C9.651 37.0461 10.6481 37.7596 11.6031 37.8913C11.5143 38.8143 11.9122 39.9028 12.752 40.7745C13.6374 41.692 14.7818 42.1302 15.7386 42.0158C15.8858 42.9315 16.5463 43.8837 17.579 44.5149C18.6676 45.179 19.8851 45.3125 20.7824 44.9604C21.1566 45.8092 22.0365 46.5639 23.1955 46.9124C24.4167 47.2792 25.6287 47.1009 26.4081 46.5328C26.9844 47.2591 28.0272 47.7668 29.2364 47.8107C30.5107 47.8573 31.6385 47.378 32.2477 46.6307C32.9896 47.1878 34.1266 47.4146 35.3075 47.1512C36.5516 46.874 37.5221 46.1248 37.9228 45.2476C38.7817 45.5989 39.9389 45.5312 41.0146 44.9778C42.1479 44.3942 42.8971 43.4245 43.0636 42.475C43.9829 42.5976 45.0852 42.239 45.9862 41.4313C46.9357 40.5797 47.4141 39.4527 47.3354 38.4914C48.2556 38.377 49.2317 37.7522 49.8994 36.7424C50.6029 35.6785 50.7803 34.4665 50.4611 33.5573C51.3228 33.2142 52.1085 32.3617 52.4991 31.2165C52.9107 30.0099 52.7763 28.7915 52.2366 27.9929C52.983 27.4441 53.5282 26.4214 53.616 25.2139Z" fill="#B52226"/>
<path d="M29.4727 45.9684C30.6445 44.6941 31.1988 42.9003 30.843 41.1075C30.4872 39.3146 28.3668 37.7229 28.772 38.5197C29.1773 39.3164 28.923 41.7898 27.71 41.6197C26.4971 41.4496 27.8125 39.5158 24.7106 37.1439C23.9157 36.5365 23.161 36.1807 22.4759 35.9849C21.499 36.6115 20.6546 37.4769 20.0463 38.559C18.0595 42.0908 19.3109 46.5648 22.8427 48.5516C23.3037 48.8114 23.7812 49.0126 24.2669 49.1635C24.7042 48.8489 25.1963 48.5863 25.4625 48.547C26.0205 48.4628 28.3 47.2426 29.4727 45.9684Z" fill="#847467"/>
<path d="M32.8344 45.7553C34.8212 42.2235 33.5699 37.7496 30.0381 35.7627C27.5884 34.3842 24.6869 34.5672 22.475 35.985C23.1602 36.1817 23.9148 36.5375 24.7097 37.144C27.8125 39.5159 26.4971 41.4487 27.7092 41.6198C28.9221 41.7899 29.1755 39.3165 28.7712 38.5198C28.3659 37.723 30.4863 39.3138 30.8421 41.1076C31.198 42.9014 30.6446 44.6942 29.4719 45.9685C28.2992 47.2427 26.0196 48.4629 25.4607 48.5471C25.1946 48.5864 24.7024 48.849 24.2652 49.1636C27.4997 50.1699 31.1065 48.8252 32.8344 45.7553Z" fill="#B8ACA1"/>
<path d="M30.4147 36.6353C30.4147 36.6353 29.9573 36.1221 29.0609 35.8952C28.1645 35.6684 28.4581 36.1321 28.9566 36.498C29.4552 36.8639 30.0561 36.8182 30.7431 37.7595C31.4292 38.7007 32.2277 38.7227 31.8847 38.0814C31.5408 37.4402 30.4147 36.6353 30.4147 36.6353Z" fill="#EFDFD3"/>
<path d="M48.6299 24.4172C48.6299 34.8507 40.1722 43.3084 29.7387 43.3084C19.3053 43.3084 10.8476 34.8507 10.8476 24.4172C10.8476 13.9837 19.3053 5.52609 29.7387 5.52609C40.1722 5.52609 48.6299 13.9837 48.6299 24.4172Z" fill="#931F28"/>
<path d="M18.4382 17.2822C18.4382 13.8291 20.0619 12.1021 23.3101 12.1021C26.5583 12.1021 28.182 13.8291 28.182 17.2822C28.182 20.7354 26.5583 22.4615 23.3101 22.4615C20.0619 22.4615 18.4382 20.7354 18.4382 17.2822ZM22.6003 15.4665C22.4786 15.8104 22.4173 16.4096 22.4173 17.2639C22.4173 18.1183 22.4786 18.7238 22.6003 19.0797C22.7219 19.4355 22.9589 19.6139 23.311 19.6139C23.6623 19.6139 23.9001 19.4355 24.0218 19.0797C24.1434 18.7238 24.2047 18.1183 24.2047 17.2639C24.2047 16.4096 24.1434 15.8104 24.0218 15.4665C23.9001 15.1225 23.6623 14.9506 23.311 14.9506C22.9589 14.9506 22.7219 15.1225 22.6003 15.4665ZM23.6504 34.4482L31.9654 12.5137C32.2636 11.7261 33.0237 11.3099 33.7482 11.5358L33.7692 11.5422C34.6556 11.8194 35.1212 12.9299 34.7553 13.8931L26.4193 35.8212C26.1248 36.596 25.3829 37.0131 24.6667 36.8064C23.7638 36.5457 23.2808 35.4242 23.6504 34.4482ZM30.2941 31.2722C30.2941 27.8191 31.9178 26.093 35.166 26.093C38.4143 26.093 40.0379 27.8191 40.0379 31.2722C40.0379 34.7253 38.4143 36.4514 35.166 36.4514C31.9178 36.4524 30.2941 34.7262 30.2941 31.2722ZM34.4553 29.4574C34.3336 29.8022 34.2723 30.4005 34.2723 31.2548C34.2723 32.1092 34.3336 32.7138 34.4553 33.0706C34.5769 33.4264 34.8139 33.6048 35.1651 33.6048C35.5164 33.6048 35.7533 33.4264 35.8759 33.0706C35.9975 32.7147 36.0588 32.1092 36.0588 31.2548C36.0588 30.4005 35.9975 29.8013 35.8759 29.4574C35.7542 29.1134 35.5173 28.9415 35.1651 28.9415C34.8139 28.9405 34.5769 29.1134 34.4553 29.4574Z" fill="white"/>
<path d="M19.4114 49.5441C19.8075 47.8582 19.4114 46.0242 18.2213 44.6356C17.0312 43.248 14.4041 42.9004 15.1478 43.3961C15.8915 43.8919 16.8831 46.1724 15.7433 46.6188C14.6026 47.0652 14.8011 44.7353 10.9345 44.1892C9.94386 44.0493 9.11145 44.1096 8.419 44.2743C7.87473 45.2997 7.56372 46.4678 7.56372 47.7091C7.56372 51.7614 10.8485 55.0462 14.9008 55.0462C15.4295 55.0462 15.9445 54.9877 16.4422 54.8816C16.669 54.3931 16.969 53.9229 17.1813 53.7574C17.6267 53.4107 19.0144 51.229 19.4114 49.5441Z" fill="#847467"/>
<path d="M22.2368 47.7092C22.2368 43.657 18.952 40.3721 14.8997 40.3721C12.0887 40.3721 9.65006 41.9537 8.41791 44.2744C9.11128 44.1097 9.94369 44.0494 10.9334 44.1893C14.8 44.7345 14.6015 47.0644 15.7422 46.6189C16.882 46.1725 15.8904 43.892 15.1467 43.3963C14.403 42.9005 17.0311 43.2472 18.2202 44.6357C19.4103 46.0243 19.8064 47.8583 19.4103 49.5442C19.0133 51.2301 17.6256 53.4108 17.1793 53.7584C16.967 53.924 16.6661 54.3932 16.4401 54.8826C19.7524 54.1728 22.2368 51.2328 22.2368 47.7092Z" fill="#B8ACA1"/>
<path d="M15.6554 40.9483C15.6554 40.9483 15.0051 40.7251 14.1123 40.9665C13.2195 41.208 13.7034 41.4687 14.3163 41.5428C14.9291 41.6169 15.4322 41.2831 16.4915 41.766C17.5508 42.2499 18.2579 41.8776 17.6441 41.487C17.0312 41.0974 15.6554 40.9483 15.6554 40.9483Z" fill="#EFDFD3"/>
<path d="M30.8218 52.7101C31.9936 51.4358 32.5479 49.642 32.192 47.8491C31.8362 46.0563 29.7159 44.4646 30.1211 45.2614C30.5263 46.0581 30.272 48.5315 29.0591 48.3614C27.8461 48.1913 29.1615 46.2575 26.0597 43.8856C25.2647 43.2782 24.5101 42.9224 23.825 42.7266C22.848 43.3532 22.0037 44.2186 21.3954 45.3007C19.4086 48.8325 20.66 53.3065 24.1918 55.2933C24.6528 55.5531 25.1303 55.7543 25.616 55.9052C26.0532 55.5906 26.5454 55.328 26.8116 55.2887C27.3696 55.2055 29.6491 53.9852 30.8218 52.7101Z" fill="#847467"/>
<path d="M34.1835 52.4978C36.1703 48.966 34.9189 44.492 31.3871 42.5052C28.9375 41.1267 26.0359 41.3096 23.8241 42.7275C24.5092 42.9242 25.2639 43.28 26.0588 43.8865C29.1616 46.2584 27.8462 48.1912 29.0582 48.3623C30.2712 48.5324 30.5245 46.059 30.1202 45.2622C29.715 44.4655 31.8354 46.0562 32.1912 47.85C32.547 49.6438 31.9936 51.4367 30.8209 52.7109C29.6482 53.9852 27.3687 55.2054 26.8098 55.2896C26.5436 55.3289 26.0515 55.5914 25.6142 55.9061C28.8497 56.9123 32.4565 55.5676 34.1835 52.4978Z" fill="#B8ACA1"/>
<path d="M31.7638 43.3779C31.7638 43.3779 31.3064 42.8647 30.41 42.6379C29.5135 42.411 29.8072 42.8748 30.3057 43.2407C30.8042 43.6066 31.4052 43.5608 32.0922 44.5021C32.7791 45.4434 33.5768 45.4653 33.2338 44.8241C32.8898 44.1819 31.7638 43.3779 31.7638 43.3779Z" fill="#EFDFD3"/>
<path d="M41.8278 47.6533C42.9996 46.3791 43.5539 44.5862 43.1981 42.7924C42.8423 40.9995 40.7219 39.4079 41.1271 40.2046C41.5324 41.0014 41.2781 43.4748 40.0651 43.3047C38.8531 43.1345 40.1676 41.2008 37.0657 38.8288C36.2708 38.2215 35.5161 37.8656 34.8319 37.669C33.855 38.2956 33.0107 39.1609 32.4024 40.243C30.4156 43.7748 31.6669 48.2488 35.1987 50.2356C35.6597 50.4954 36.1372 50.6966 36.623 50.8476C37.0602 50.5329 37.5523 50.2704 37.8185 50.231C38.3756 50.1478 40.6551 48.9285 41.8278 47.6533Z" fill="#847467"/>
<path d="M45.1897 47.4411C47.1765 43.9093 45.9252 39.4353 42.3934 37.4485C39.9437 36.07 37.0431 36.2529 34.8303 37.6708C35.5155 37.8675 36.2701 38.2233 37.065 38.8307C40.1678 41.2026 38.8524 43.1354 40.0644 43.3065C41.2774 43.4766 41.5308 41.0032 41.1265 40.2064C40.7212 39.4097 42.8416 41.0004 43.1974 42.7942C43.5533 44.588 42.9998 46.3809 41.8271 47.6551C40.6545 48.9294 38.3758 50.1496 37.816 50.2338C37.5498 50.2731 37.0577 50.5356 36.6205 50.8512C39.855 51.8556 43.4618 50.5109 45.1897 47.4411Z" fill="#B8ACA1"/>
<path d="M42.77 38.3211C42.77 38.3211 42.3126 37.808 41.4162 37.5802C40.5197 37.3534 40.8134 37.8171 41.3119 38.183C41.8104 38.5489 42.4114 38.5032 43.0984 39.4444C43.7844 40.3857 44.583 40.4077 44.24 39.7664C43.896 39.1252 42.77 38.3211 42.77 38.3211Z" fill="#EFDFD3"/>
<path d="M51.3457 54.9904C52.5175 53.7162 53.0718 51.9233 52.716 50.1295C52.3601 48.3367 50.2398 46.745 50.645 47.5417C51.0502 48.3385 50.7959 50.8119 49.583 50.6418C48.371 50.4716 49.6855 48.5379 46.5836 46.1669C45.7887 45.5595 45.034 45.2037 44.3489 45.0079C43.3719 45.6345 42.5276 46.4999 41.9193 47.582C39.9325 51.1138 41.1839 55.5878 44.7157 57.5746C45.1767 57.8344 45.6542 58.0356 46.1399 58.1865C46.5772 57.8719 47.0693 57.6093 47.3355 57.57C47.8944 57.4858 50.1739 56.2656 51.3457 54.9904Z" fill="#847467"/>
<path d="M54.7082 54.7783C56.695 51.2465 55.4436 46.7725 51.9118 44.7857C49.4621 43.4072 46.5606 43.5902 44.3488 45.008C45.0339 45.2047 45.7886 45.5596 46.5835 46.167C49.6862 48.5389 48.3709 50.4717 49.5829 50.6428C50.7949 50.8129 51.0492 48.3395 50.6449 47.5427C50.2397 46.746 52.36 48.3367 52.7159 50.1305C53.0717 51.9234 52.5183 53.7172 51.3456 54.9914C50.1729 56.2657 47.8943 57.4859 47.3345 57.5701C47.0683 57.6094 46.5761 57.8719 46.1389 58.1866C49.3734 59.1928 52.9802 57.8482 54.7082 54.7783Z" fill="#B8ACA1"/>
<path d="M59 71C59 71.5519 45.7922 72 29.5 72C13.2078 72 0 71.5519 0 71C0 70.4481 13.2078 70 29.5 70C45.7922 70 59 70.4481 59 71Z" fill="black" fill-opacity="0.17"/>
<path d="M52.2881 45.6582C52.2881 45.6582 51.8307 45.1451 50.9343 44.9182C50.0378 44.6914 50.3314 45.1551 50.83 45.521C51.3285 45.8869 51.9295 45.8412 52.6165 46.7824C53.3034 47.7237 54.1011 47.7457 53.758 47.1044C53.4141 46.4623 52.2881 45.6582 52.2881 45.6582Z" fill="#EFDFD3"/>
<path d="M56.4444 48.602H3C4.01536 57.1237 10.9719 64.2156 20.4312 67.0742V71.2088H38.2073V67.3083C48.0764 64.6172 55.4007 57.3642 56.4444 48.602Z" fill="#333333"/>
<path d="M37.7974 67.4235H29.7999V70.6534H37.7974V67.4235Z" fill="#727373"/>
</svg>
