<svg fill="none" height="274" viewBox="0 0 294 274" width="294" xmlns="http://www.w3.org/2000/svg" xmlns:xlink="http://www.w3.org/1999/xlink"><clipPath id="a"><path d="m0 0h15v182h-15z" transform="matrix(.00000001 -1 -1 -.00000001 182.5 92.5)"/></clipPath><clipPath id="b"><path d="m0 0h15v182h-15z" transform="matrix(.00000001 -1 -1 -.00000001 294 50)"/></clipPath><clipPath id="c"><path d="m182 80h109v43h-109z"/></clipPath><clipPath id="d"><path d="m0 24h96v38h-96z"/></clipPath><clipPath id="e"><path d="m159 0h60v24h-60z"/></clipPath><g clip-path="url(#a)"><path d="m21.5215 91.996c5.5594 0 8.468-2.6736 10.8026-4.8192 2.0331-1.872 3.5068-3.2208 6.6927-3.2208 3.1858 0 4.6547 1.3536 6.6926 3.2208 2.3347 2.1456 5.2432 4.8192 10.8026 4.8192s8.4679-2.6736 10.8026-4.8192c2.0331-1.872 3.5068-3.2208 6.6926-3.2208s4.6547 1.3536 6.6927 3.2208c2.3346 2.1456 5.2432 4.8192 10.8026 4.8192 5.5593 0 8.4679-2.6736 10.8025-4.8192 2.033-1.872 3.507-3.2208 6.693-3.2208s4.654 1.3536 6.692 3.2208c2.335 2.1456 5.244 4.8192 10.803 4.8192s8.468-2.6736 10.803-4.8192c2.033-1.872 3.506-3.2208 6.692-3.2208s4.655 1.3536 6.693 3.2208c2.33 2.1504 5.238 4.8192 10.798 4.8192 5.559 0 8.467-2.6736 10.802-4.8192 2.033-1.872 3.507-3.2208 6.693-3.2208 1.668 0 3.015-1.3344 3.015-2.976 0-1.6464-1.352-2.976-3.015-2.976-5.56 0-8.468 2.6736-10.803 4.8192-2.033 1.872-3.507 3.2208-6.692 3.2208-3.186 0-4.655-1.3536-6.693-3.2208-2.335-2.1456-5.243-4.8192-10.803-4.8192-5.559 0-8.468 2.6736-10.802 4.8192-2.033 1.872-3.507 3.2208-6.693 3.2208s-4.655-1.3536-6.693-3.2208c-2.334-2.1456-5.243-4.8192-10.802-4.8192-5.56 0-8.468 2.6736-10.8028 4.8192-2.033 1.872-3.5068 3.2208-6.6926 3.2208s-4.6547-1.3536-6.6926-3.2208c-2.3347-2.1456-5.2433-4.8192-10.8026-4.8192-5.5594 0-8.468 2.6736-10.8026 4.8192-2.0331 1.872-3.5069 3.2208-6.6927 3.2208s-4.6547-1.3536-6.6926-3.2208c-2.3347-2.1456-5.2432-4.8192-10.8026-4.8192s-8.4679 2.6736-10.8026 4.8192c-2.0331 1.872-3.5068 3.2208-6.6926 3.2208-3.1859 0-4.6547-1.3536-6.6927-3.2208-2.3346-2.1456-5.2432-4.8192-10.80257-4.8192-1.66829 0-3.01557 1.3344-3.01557 2.976 0 1.6464 1.35214 2.976 3.01557 2.976 3.18582 0 4.6547 1.3536 6.69267 3.2208 2.3395 2.1504 5.2481 4.8192 10.8074 4.8192z" stroke="#ffc800" stroke-miterlimit="10" stroke-width="2.0944"/></g><g clip-path="url(#b)"><path d="m133.022 49.496c5.559 0 8.467-2.6736 10.802-4.8192 2.033-1.872 3.507-3.2208 6.693-3.2208s4.654 1.3536 6.692 3.2208c2.335 2.1456 5.244 4.8192 10.803 4.8192s8.468-2.6736 10.803-4.8192c2.033-1.872 3.506-3.2208 6.692-3.2208s4.655 1.3536 6.693 3.2208c2.335 2.1456 5.243 4.8192 10.802 4.8192 5.56 0 8.468-2.6736 10.803-4.8192 2.033-1.872 3.507-3.2208 6.693-3.2208s4.654 1.3536 6.692 3.2208c2.335 2.1456 5.244 4.8192 10.803 4.8192s8.468-2.6736 10.803-4.8192c2.033-1.872 3.506-3.2208 6.692-3.2208s4.655 1.3536 6.693 3.2208c2.33 2.1504 5.238 4.8192 10.798 4.8192 5.559 0 8.467-2.6736 10.802-4.8192 2.033-1.872 3.507-3.2208 6.693-3.2208 1.668 0 3.015-1.3344 3.015-2.976 0-1.6464-1.352-2.976-3.015-2.976-5.56 0-8.468 2.6736-10.803 4.8192-2.033 1.872-3.507 3.2208-6.692 3.2208-3.186 0-4.655-1.3536-6.693-3.2208-2.335-2.1456-5.243-4.8192-10.803-4.8192-5.559 0-8.468 2.6736-10.802 4.8192-2.033 1.872-3.507 3.2208-6.693 3.2208s-4.655-1.3536-6.693-3.2208c-2.334-2.1456-5.243-4.8192-10.802-4.8192-5.56 0-8.468 2.6736-10.803 4.8192-2.033 1.872-3.507 3.2208-6.692 3.2208-3.186 0-4.655-1.3536-6.693-3.2208-2.335-2.1456-5.243-4.8192-10.803-4.8192-5.559 0-8.468 2.6736-10.802 4.8192-2.033 1.872-3.507 3.2208-6.693 3.2208s-4.655-1.3536-6.693-3.2208c-2.334-2.1456-5.243-4.8192-10.802-4.8192s-8.468 2.6736-10.803 4.8192c-2.033 1.872-3.507 3.2208-6.692 3.2208-3.186 0-4.655-1.3536-6.693-3.2208-2.335-2.1456-5.243-4.8192-10.803-4.8192-1.668 0-3.015 1.3344-3.015 2.976 0 1.6464 1.352 2.976 3.015 2.976 3.186 0 4.655 1.3536 6.693 3.2208 2.34 2.1504 5.248 4.8192 10.808 4.8192z" stroke="#ffc800" stroke-miterlimit="10" stroke-width="2.0944"/></g><ellipse cx="101" cy="266" fill="#9a1920" rx="59" ry="8"/><g clip-path="url(#c)"><path d="m284.319 115.551c-3.83 0-9.859-.988-15.367-2.082-.829-.165-1.397-.933-1.316-1.777.036-.365.052-.734.052-1.109 0-6.45-5.205-11.6774-11.623-11.6774-.052 0-.102.0024-.155.0048-1.275-10.6558-10.298-18.9104-21.243-18.9104-8.536 0-15.904 5.0233-19.34 12.2871-.282.5949-.896.9523-1.55.9284-.169-.0072-.339-.0096-.511-.0096-8.19 0-14.827 6.6689-14.827 14.8971v.014c0 .785-.526 1.468-1.287 1.644-5.234 1.192-11.227 2.989-13.207 5.258-3.758 4.313-2.683 7.981 8.589 7.981h96.808c.874 0 1.605-.684 1.645-1.562.106-2.185-.613-5.887-6.668-5.887z" fill="#fff"/></g><ellipse cx="196" cy="240" fill="#9a1920" rx="59" ry="8"/><path d="m268 150.732c-51.335-1.622-102.665-3.247-154-4.869 2.533 21.71 9.952 43.301 24.059 59.975 14.108 16.673 35.442 27.874 57.233 26.816 19.795-.96 38.366-11.925 50.873-27.333 12.504-15.408 19.32-34.893 21.835-54.589z" fill="#59322e"/><path d="m162.888 223.202c.407 4.906.817 9.816 1.223 14.721 17.208 6.375 36.563 6.761 54.01 1.069.751-5.331 1.502-10.666 2.257-15.997-16.503.306-33.006.611-49.509.917z" fill="#59322e"/><path d="m268 150.732c-4.058 2.433-9.041 5.488-13.505 7.677-.555.273-1.096.528-1.633.771-32.24 14.688-69.907 17.372-103.791 6.932-7.349-2.266-14.688-4.648-21.174-8.223-1.553-.858-3.056-1.785-4.493-2.785-3.579-2.499-6.773-5.506-9.404-9.245 10.293-3.807 20.902-6.771 31.688-8.877 1.594-.316 3.187-.607 4.788-.88.101-.018.203-.032.305-.051 33.053-5.593 67.46-3.105 98.818 8.303 5.916 2.149 12.739 3.585 18.401 6.378z" fill="#381816"/><path d="m254.495 158.409c-.555.273-1.096.528-1.633.771-24.147 11.005-51.338 15.267-77.71 12.328-8.83-.985-17.577-2.771-26.081-5.396-4.58-1.408-9.164-2.87-13.527-4.623-2.642-1.076-5.208-2.251-7.647-3.596-1.553-.858-3.056-1.786-4.493-2.786 4.054-1.276 8.148-2.425 12.275-3.44 3.328-.836 6.674-1.571 10.035-2.229 1.593-.317 3.187-.608 4.787-.88.102-.018.203-.033.305-.051 3.626-.618 7.273-1.131 10.932-1.546 29.645-3.396 59.972-.309 87.886 9.848 1.572.567 3.209 1.087 4.871 1.6z" fill="#bb824b"/><path d="m168.067 176.007c-10.772-2.815-21.544-5.633-32.32-8.448.505 12.793 3.964 25.671 11.295 36.155 7.332 10.488 18.761 18.368 31.435 19.994-5.611-6.193-8.617-14.397-9.876-22.663-1.256-8.266-.896-16.685-.534-25.038z" fill="#724441"/><path d="m171.301 230.392c.124 2.727.022 5.469-.301 8.182 4.961 1.68 10.293 2.266 15.501 1.702.16-2.775.316-5.549.476-8.32-5.263.087-10.536-.437-15.676-1.564z" fill="#724441"/><path d="m218.408 226.406c-7.502 1.033-14.667 3.139-22.281 3.56-8.138.455-15.912-1.112-23.947-1.912-.218-.022-.396.287-.149.392 7.016 2.928 15.124 3.302 22.633 3.168 7.81-.138 16.891-1.113 23.834-4.92.142-.077.066-.31-.09-.288z" fill="#381816"/><path d="m201.226 154.227c2.207-4.4 4.428-8.826 7.393-12.753 2.965-3.928 6.743-7.364 11.313-9.175-1.474 3.378-2.947 6.76-4.421 10.138 3.354-2.978 7.477-5.08 11.858-6.033.395-.087.86-.145 1.157.131.425.397.149 1.098-.152 1.593-7.277 11.895-19.574 20.598-33.195 23.496-.279-.506-.043-1.226.483-1.469z" fill="#89b169"/><path d="m231.205 161.326c.744-3.466 3.219-6.281 5.8-8.706 5.999-5.63 13.091-10.088 20.764-13.045-1.713 4.001-4.004 7.75-6.773 11.103 2.762-2.193 6.254-3.451 9.781-3.52-6.71 9.211-18.201 14.717-29.572 14.168z" fill="#89b169"/><path d="m164.554 151.725c-3.266-8.175-8.177-15.688-14.343-21.961-1.51-1.535-3.448-3.106-5.561-2.699 2.813 4.939 5.114 10.168 6.864 15.58-4.011-6.044-11.052-9.95-18.289-10.154 2.116 4.928 4.965 9.539 8.428 13.63 3.241 3.833 7.059 7.237 11.508 9.554 4.45 2.316 9.564 3.498 14.533 2.847z" fill="#89b169"/><path d="m196.479 153.031c-.117-1.608-1.782-2.608-3.3-3.139-5.894-2.065-12.347-1.345-18.546-.603-1.267.152-2.573.316-3.669.971-1.096.651-1.927 1.931-1.652 3.178.32 1.447 1.88 2.215 3.292 2.651 4.918 1.517 10.297 1.477 15.193-.113-.744-.218-1.248.971-.769 1.582.475.615 1.368.691 2.141.633 1.949-.153 3.854-.862 5.43-2.022 1.023-.756 1.974-1.865 1.88-3.138z" fill="#d79356"/><path d="m155.426 148.012c1.989-6.033 7.346-11.47 13.687-11.346 4.939.098 9.324 3.535 11.915 7.746 2.592 4.211 3.706 9.146 4.784 13.975-10.33 3.724-22.321 2.477-31.671-3.287z" fill="#f8c289"/><path d="m175.152 171.512c-8.83-.986-17.577-2.771-26.081-5.397-4.58-1.407-9.164-2.869-13.527-4.622-.178-3.287-.225-6.604.138-9.826.414-3.658 1.358-7.175 3.249-10.339 1.074-1.785 2.497-3.469 4.424-4.258 3.705-1.52 7.857.672 11.037 3.124 2.642 2.029 5.11 4.305 7.349 6.767 6.356 6.942 11.012 15.441 13.411 24.551z" fill="#e9dccd"/><path d="m149.224 138.292c-1.271-.462-2.715-.76-3.938-.182-1.615.763-2.222 2.745-2.403 4.524-.396 3.905.428 7.844 1.633 11.579 1.205 3.738 2.791 7.342 3.985 11.08 8.228 1.629 16.434 3.361 24.622 5.197-2.62-8.513-6.943-16.499-12.634-23.351-3.088-3.716-6.725-7.196-11.265-8.847z" fill="#fffbf9"/><path d="m166.021 166.155c-.494-4.815-2.733-9.433-6.214-12.793-1.016-.982-2.156-1.873-3.484-2.346-1.329-.476-2.871-.487-4.094.215-1.909 1.101-2.545 3.614-2.327 5.811.312 3.16 2.011 6.095 4.381 8.204 2.37 2.106 5.368 3.426 8.467 4.088.81.174 1.724.287 2.41-.182.904-.615.973-1.909.861-2.997z" fill="#f89b48"/><path d="m217.878 157.195c-1.303-.484-2.842.603-3.082 1.974-.239 1.371.603 2.779 1.793 3.499 1.191.72 2.657.847 4.04.694 1.847-.203 3.611-.869 5.339-1.556.856-.342 1.731-.702 2.417-1.32s1.165-1.546 1.002-2.459c-.156-.876-.879-1.567-1.699-1.912-.817-.346-1.728-.397-2.613-.408-3.978-.051-7.967.615-11.712 1.964z" fill="#d79356"/><path d="m195.433 162.879c-4.261-.739-8.794.229-12.383 2.647-.81.546-1.663 1.396-1.423 2.342.218.869 1.212 1.247 2.072 1.491 3.761 1.073 7.553 2.153 11.455 2.444 3.898.291 7.963-.258 11.327-2.251 1.093-.648 2.211-1.68 2.069-2.946-.149-1.327-1.571-2.073-2.831-2.509-4.809-1.662-9.995-2.211-15.044-1.6z" fill="#d79356"/><path d="m218.121 166.555c-11.378 3.368-23.57 3.942-35.213 1.662 2.762-4.724 5.619-9.56 9.883-12.983 4.265-3.422 10.315-5.171 15.298-2.927 5.444 2.451 7.988 8.63 10.032 14.248z" fill="#f8c289"/><path d="m220.342 163.3c-.69.019-1.459-.003-1.942-.494-.722-.742-.312-1.971.142-2.902 1.245-2.571 2.504-5.175 4.337-7.364 1.833-2.193 4.319-3.968 7.146-4.353 3.267-.448 6.584 1.033 8.99 3.291 2.407 2.258 4.025 5.229 5.387 8.24-7.836 2.153-15.934 3.361-24.06 3.582z" fill="#f8c289"/><path d="m190.871 159.584c-1.136 1.549-2.181 3.167-3.125 4.844-.337.596-.664 1.327-.352 1.938.367.717 1.354.778 2.156.706 4.675-.433 9.219-2.193 12.968-5.023 1.1-.829 2.159-1.781 2.776-3.018.617-1.233.715-2.804-.054-3.949-.824-1.226-2.41-1.691-3.883-1.746-1.902-.073-3.822.404-5.477 1.349-2.044 1.168-3.619 3.004-5.009 4.899z" fill="#ffd7ad"/><path d="m161.992 140.528c-.788 2.084-.283 4.491.871 6.393s2.885 3.379 4.671 4.706c1.285.953 2.824 1.895 4.381 1.524 1.288-.309 2.221-1.477 2.656-2.731.719-2.066.316-4.364-.464-6.408-.762-1.997-1.971-3.946-3.858-4.942-1.888-.997-7.499-.542-8.257 1.458z" fill="#ffd7ad"/><path d="m229.481 150.721c-2.272 1.557-4.203 3.601-5.629 5.961-.443.731-.842 1.516-.922 2.367s.228 1.782.943 2.244c.93.596 2.16.24 3.151-.247 1.582-.775 3.023-1.837 4.235-3.117.824-.869 1.554-1.873 1.855-3.033.298-1.16.098-2.502-.744-3.353-.697-.709-1.742-.992-2.737-.952-.99.043.668-.433-.152.13z" fill="#ffd7ad"/><path d="m175.287 181.512c-48.761-2.692-97.5259-5.384-146.287-8.08 1.9299 20.796 8.5034 41.584 21.5461 57.826 13.0426 16.241 33.0769 27.415 53.8149 26.888 18.84-.477 36.736-10.537 48.962-24.977 12.23-14.433 19.138-32.893 21.964-51.657z" fill="#e49b65"/><path d="m73.7687 248.406c.2814 4.696.5588 9.392.8403 14.092 16.2188 6.474 34.609 7.271 51.318 2.223.832-5.077 1.665-10.153 2.497-15.23-15.696-.077-31.3885-.15-47.0847-.226z" fill="#e49b65"/><path d="m175.287 181.512c-3.076 1.761-6.71 3.871-10.204 5.664-.949.482-1.89.943-2.802 1.368-.535.247-1.054.478-1.572.701-30.974 13.314-66.8377 15.039-98.817 4.311-6.9354-2.328-13.8628-4.765-19.9459-8.327-1.4594-.854-2.8666-1.773-4.2095-2.761-.0321-.024-.0723-.049-.1045-.077-3.3049-2.445-6.2359-5.372-8.6321-8.959 9.8704-3.409 20.0182-6.004 30.3189-7.773 1.5197-.267 3.0435-.51 4.5713-.736.0965-.013.193-.029.2895-.041 3.4577-.51 6.9314-.919 10.4092-1.235 15.2338-1.388 30.6201-.975 45.6891 1.32 12.878 1.959 25.527 5.295 37.657 10.048 5.576 2.182 12.029 3.704 17.352 6.497z" fill="#d28053"/><path d="m79.7351 203.434c-10.18-2.931-20.3559-5.862-30.5359-8.789.197 12.234 3.2043 24.61 9.9387 34.791 6.7384 10.181 17.429 17.962 29.4424 19.8-5.1985-6.04-7.8722-13.942-8.8894-21.869-1.0172-7.926-.4865-15.962.0442-23.933z" fill="#f8c289"/><path d="m81.6047 255.458c.0563 2.612-.1005 5.227-.4664 7.81 4.6799 1.716 9.7337 2.392 14.6951 1.971.2131-2.647.4221-5.291.6352-7.939-5.0015-.032-9.9991-.651-14.8639-1.842z" fill="#f8c289"/><path d="m221.576 103s-145.6845 14.521-147.7068 15.08c-2.0224.559-4.8488 3.012 1.2503 2.874 6.0992-.137 146.5005-9.995 146.7895-9.659.298.336-.333-8.295-.333-8.295z" fill="#e49b65"/><path d="m221.773 111.129c.068.085.193.15.325.138.129-.013.201-.106.258-.183.888-1.279 1.624-2.647 1.64-4.052s-.744-3.247-2.424-4.028c-1.753 2.142-1.693 5.809.201 8.125z" fill="#e49b65"/><path d="m126.474 252.702c-7.153.821-14.012 2.671-21.261 2.906-7.7473.251-15.1008-1.417-22.7198-2.36-.205-.024-.3819.267-.1487.368 6.6017 2.952 14.301 3.49 21.4455 3.531 7.43.04 16.082-.685 22.768-4.17.133-.069.065-.292-.084-.275z" fill="#d28053"/><path d="m165.083 187.176c-.949.482-1.89.943-2.802 1.368-.535.247-1.054.478-1.572.701-30.974 13.314-66.8377 15.039-98.817 4.311-6.9354-2.328-13.8628-4.765-19.9459-8.327-1.4594-.854-2.8666-1.773-4.2095-2.761-.0322-.024-.0724-.049-.1045-.077-.0362-.146-.0644-.292-.0563-.445.0321-.79.8041-1.308 1.5077-1.64 2.9068-1.336 6.272-1.619 9.3518-.797 1.4393-7.559 10.0151-6.959 13.4165-1.219-1.6082-3.263-.7157-7.582 2.163-9.845 2.8868-2.272 7.3978-2.097 10.1117.384.1568-1.733.3055-3.457.4623-5.19 1.363-15.318 2.7219-30.649 4.0769-45.968.0723-.798.1809-1.668.7598-2.206.579-.539 1.7892-.357 1.8656.433.2935-2.579 4.4668-3.441 5.7493-1.186.5428-2.628 4.7041-3.405 6.1434-1.154 1.3992-2.174 4.9975-2.372 6.6218-.368 1.4714-2.81 6.2404-2.822 7.7234-.017.619-1.627 2.469-2.667 4.169-2.344 1.701.32 3.048 1.98 3.036 3.713.72-1.421 1.479-2.883 2.718-3.883 1.238-.991 3.108-1.38 4.41-.465 1.685 1.174 1.584 3.659 1.339 5.704-1.323 11.153-2.698 37.876-2.927 49.053-.012.555-.78.814-1.242 1.178 2.4-.506 4.929-.356 7.265.413.076 1.631-.567 3.291-1.721 4.437 2.035-1.089 4.121-2.19 6.389-2.587 2.271-.405 4.804.012 6.453 1.631 1.656 1.62 2.03 4.595.422 6.251 3.156-3.251 14.237-1.308 17.542.619 3.067 1.794 5.005 6.032 3.115 9.044 1.303-2.064 4.781-1.668 6.136.365.189.287.337.574.45.874z" fill="#f6be66"/><path d="m211.532 105.138c-6.557-.478-13.814 1.404-20.356 2.161-6.79.786-13.585 1.502-20.388 2.174s-13.609 1.308-20.42 1.903c-6.236.542-12.818.567-18.905 2.109-.116.028-.128.227.004.243 6.196.721 12.717-.219 18.917-.68 6.815-.506 13.622-1.105 20.424-1.773 6.803-.668 13.598-1.405 20.388-2.186 6.594-.757 14.213-.725 20.493-2.903.615-.215.454-1.004-.157-1.048z" fill="#f8c289"/><path d="m83.9085 113.465c-.0242-.203-.3177-.239-.3699-.033-.9891 4.138-.9408 8.563-1.2343 12.797-.3699 5.303-.6916 10.615-1.0293 15.918-.6352 9.955-2.0706 20.266-1.6203 30.232.0241.511.8363.596.9207.081 1.5761-9.388 1.4434-19.277 1.9982-28.775l.8363-14.323c.2975-5.194 1.0856-10.723.4986-15.897z" fill="#ecaa4c"/><path d="m91.5837 113.076c-.004-.032-.0523-.024-.0603.004-1.2142 4.049-1.0695 8.583-1.3751 12.781-.3457 4.781-.6473 9.566-.9649 14.347-.6191 9.258-1.9379 18.796-1.7328 28.083l-.0282.032c-.1367.158-.1688.364-.0603.547.0563.097.1166.194.1729.291.2211.373.9086.279.981-.17 1.4032-8.906 1.3107-18.237 1.8575-27.237.2895-4.781.579-9.562.8684-14.347.2774-4.655 1.1097-9.716.3418-14.331z" fill="#ecaa4c"/><path d="m95.0895 112.554c-.008-.117-.205-.146-.2211-.02-1.1981 8.906-.9971 18.112-1.2624 27.087-.2815 9.461-1.2062 19.172-.6071 28.621.0361.599.8604.514.9247-.036 1.0413-8.894.6915-18.096.9126-27.047.2332-9.457 1.0172-19.16.2533-28.605z" fill="#ecaa4c"/><path d="m102.395 142.232c.245-10.109.671-20.403-.233-30.484-.012-.149-.225-.133-.238.008-.856 9.587-.707 19.307-.964 28.925-.254 9.567-1.3232 19.323-.897 28.877.028.603 1.005.708 1.094.097 1.282-8.983 1.017-18.363 1.238-27.423z" fill="#ecaa4c"/><path d="m109.961 142.442c-.08-10.047-.02-20.144-.691-30.167-.012-.174-.265-.158-.273.012-.539 9.521-.358 19.083-.386 28.621-.029 10.016-.334 20.189.458 30.176.036.453.679.409.712-.028.655-9.489.257-19.112.18-28.614z" fill="#ecaa4c"/><path d="m117.613 111.469c-1.468 7.959-2.043 16.1-2.899 24.144-.455 4.279-.877 8.566-1.307 12.849-.474 4.712-1.459 9.712-1.069 14.44.036.417.623.466.735.065 2.151-7.586 1.95-16.351 2.702-24.192.869-9.044 2.015-18.189 2.131-27.278.004-.17-.265-.19-.293-.028z" fill="#ecaa4c"/><path d="m221.592 117.27s-146.2795 5.919-148.3299 6.36c-2.0505.437-5.0136 2.721 1.0815 2.943 6.0951.219 146.8304-1.352 147.0994-1 .273.349.149-8.303.149-8.303z" fill="#e49b65"/><path d="m221.314 125.395c.065.089.181.162.318.154.129-.008.209-.093.269-.17.965-1.227 1.777-2.546 1.874-3.947.096-1.401-.555-3.287-2.183-4.166-1.882 2.04-2.035 5.708-.278 8.129z" fill="#e49b65"/><path d="m209.494 120.578c-6.751-.725-13.883.109-20.666.279-7.884.198-15.772.381-23.656.595-7.362.198-14.72.389-22.081.624-7.832.251-15.897.08-23.649 1.323-.189.033-.285.344-.044.369 6.786.724 13.746.275 20.561.125 7.888-.174 15.772-.38 23.657-.591 7.361-.198 14.719-.417 22.08-.627 7.748-.223 16.002.328 23.653-.899.607-.105.921-1.113.145-1.198z" fill="#f8c289"/><path d="m90.5584 172.772c-2.3319.806-4.5392 2.109-6.1193 4.012-1.58 1.903-2.4766 4.453-2.1027 6.906.4061 2.652 2.2515 4.931 4.5191 6.34 2.2716 1.409 4.9332 2.036 7.5787 2.36 7.4058.907 15.0728-.478 21.7068-3.919 3.317-1.72 6.662-4.404 7.052-8.141.354-3.384-1.938-6.594-4.821-8.376-3.534-2.182-7.896-2.671-12.009-2.178-4.117.494-8.0611 1.907-11.965 3.308z" fill="#ffd789"/><path d="m131.021 185.966c2.014 1.785 4.668 2.821 7.354 2.874 2.681.052 5.375-.883 7.458-2.587.599-.49 1.194-1.178 1.061-1.943-.116-.656-.724-1.089-1.294-1.425-3.8-2.243-8.166-3.494-12.569-3.595-1.125-.024-2.356.061-3.188.826-.824.757-1.029 2.04-.716 3.121.306 1.085 1.054 1.984 1.894 2.729z" fill="#ffd789"/><path d="m63.0017 180.423c-2.5611-1.57-5.9102-1.748-8.6241-.461-1.6725.793-3.2244 2.49-2.8264 4.307.2654 1.207 1.3107 2.069 2.356 2.713 3.5984 2.21 8.0612 2.955 12.1742 2.032 1.3911-.312 2.9832-1.097 3.0918-2.53.0844-1.105-.78-2.041-1.6524-2.725-2.2314-1.745-4.9413-2.87-7.7436-3.214 2.3158.749 4.6598 1.506 7.0842 1.68 2.4284.174 4.9814-.292 6.9193-1.773 1.7811-1.364 2.9069-3.947 1.8294-5.923-1.1499-2.109-4.1331-2.421-6.3806-1.599-3.1803 1.158-5.6489 4.129-6.2278 7.493z" fill="#ffd789"/><path d="m73.5716 189.832c8.4753-5.328 19.0815-5.466 29.0724-5.3 4.085.065 8.238.166 12.134 1.405s7.571 3.793 9.231 7.554c-8.194 3.182-17.115 4.101-25.892 3.806-8.7768-.296-17.4652-1.769-26.1254-3.243z" fill="#f6be66"/><path d="m79.9804 190.649c-.9609.462-2.0545 1.272-1.8454 2.32.1769.875 1.1539 1.287 2.0062 1.526 9.5126 2.68 20.0708 1.365 28.6418-3.578-8.8929-4.466-19.8288-4.571-28.8026-.268z" fill="#ffd789"/><g fill="#f6be66"><path d="m97.0235 169.959c-7.9888 2.833-14.1845 9.707-15.9415 18.1-.1005.485.6192.623.7479.161 2.3037-8.133 7.5787-14.476 15.2981-17.905.2211-.101.1367-.441-.1045-.356z"/><path d="m104.662 169.084c-6.8224 3.603-13.9387 10.137-17.0345 17.371-.193.45.398.919.7277.498 2.3761-3.068 4.3904-6.335 7.0198-9.222 2.8466-3.129 6.147-5.768 9.476-8.351.185-.146.017-.405-.189-.296z"/><path d="m117.162 169.449c-3.236 1.344-6.014 3.271-8.535 5.704-2.469 2.376-5.424 6.113-5.975 9.562-.096.595.623.789.945.336 1.934-2.749 3.088-5.789 5.311-8.413 2.364-2.789 5.283-5.016 8.407-6.866.173-.105.04-.404-.153-.323z"/><path d="m122.288 174.841c-4.06 2.716-9.118 7.003-10.401 11.967-.092.36.406.615.644.328 1.664-2.017 2.798-4.433 4.43-6.494 1.629-2.056 3.51-3.902 5.545-5.546.156-.126-.057-.36-.218-.255z"/><path d="m129.887 178.577c-.108-.145-.414-.044-.329.15.985 2.202 2.018 4.385 2.955 6.611.957 2.279 1.544 4.745 2.685 6.935.201.388.917.178.869-.263-.543-4.64-3.446-9.753-6.18-13.433z"/><path d="m138.419 178.853c-.35-.636-1.347-.033-1.001.615 1.998 3.733 2.975 7.615 4.069 11.667.176.66 1.306.478 1.234-.206-.438-4.283-2.244-8.344-4.302-12.076z"/><path d="m93.4613 197.127c-4.3864-2.773-9.2231-4.911-13.8387-7.267-.2533-.13-.4865.251-.2252.397 4.5473 2.489 9.0382 5.279 13.7985 7.343.3096.134.5669-.283.2654-.473z"/><path d="m106.797 197.904c-4.579-4.465-11.2491-7.36-16.91-10.153-.4342-.215-.8282.433-.382.672 5.7494 3.077 10.904 7.384 16.697 10.274.495.247 1.009-.388.595-.793z"/><path d="m71.7584 183.905c-.7679-1.749-2.2716-3.133-3.5984-4.461-1.5881-1.587-3.3531-2.964-5.1422-4.32-.3418-.259-.8444.215-.4905.51 1.5559 1.312 2.9752 2.757 4.3743 4.235 1.379 1.453 2.5249 3.263 4.105 4.497.3015.231.9488-.016.7518-.461z"/><path d="m75.8513 180.954c-1.773-2.935-4.3261-5.388-6.5052-8.016-.4423-.534-1.4353.037-.981.603 2.1671 2.705 4.0808 5.737 6.6258 8.101.4463.413 1.1821-.158.8604-.688z"/><path d="m60.6054 178.65c-1.5439 1.025-2.9591 2.174-4.3261 3.429-1.2946 1.19-2.9229 2.636-3.5702 4.304-.1448.376.3739.643.6594.453 1.3307-.895 2.352-2.385 3.4737-3.53 1.375-1.401 2.8626-2.688 4.3703-3.939.4463-.364-.1608-1.012-.6071-.717z"/><path d="m68.6586 182.585c-1.4836 1.215-2.943 2.417-4.3141 3.761-1.2061 1.182-2.6575 2.486-3.3933 4.028-.205.425.2895.951.7036.632 1.371-1.053 2.4284-2.575 3.6064-3.842 1.2906-1.385 2.6375-2.745 4.0728-3.976.4664-.4-.2332-.967-.6754-.603z"/></g><path d="m120.97 167.291c-6.079-2.401-14.06-1.838-20.36-.753-7.9127 1.36-15.7688 4.101-22.1534 9.113-.197.153-.0201.425.201.311 6.4007-3.23 12.7532-5.935 19.7811-7.428 7.6073-1.616 14.6913-.373 22.3023-.373.442.004.691-.688.229-.87z" fill="#ecaa4c"/><path d="m125.843 194.374c-4.387-4.947-12.778-7.542-19.21-7.388-.218.004-.258.315-.045.368 3.285.83 6.493 1.628 9.654 2.878 3.228 1.276 5.926 3.421 9.002 4.943.522.264.977-.376.599-.801z" fill="#ecaa4c"/><path d="m130.116 175.116c-4.358 3.271-7.683 8.834-7.442 14.444.021.498.752.547.873.077 1.387-5.441 3.08-9.958 6.775-14.282.112-.138-.057-.352-.206-.239z" fill="#ecaa4c"/><path d="m78.8587 185.921c-4.5955 1.17-9.3116 3.931-12.4919 7.485-.1407.158.0523.361.2252.263 4.2095-2.368 8.3667-4.675 12.6607-6.894.5186-.271.1166-.984-.394-.854z" fill="#ecaa4c"/><path d="m74.4441 188.459c-1.1619-1.951-3.3812-2.963-5.1905-4.169-.201-.134-.3859.161-.2412.323 1.4434 1.616 2.746 3.607 4.8126 4.482.398.17.8644-.223.6191-.636z" fill="#ecaa4c"/><path d="m120.793 187.391c1.56-1.049 3.843-.818 5.17.518s1.544 3.639.499 5.206c-1.701-.328-3.365-.826-4.966-1.49-.739-.308-1.531-.708-1.845-1.449-.426-1 .237-2.182 1.142-2.785z" fill="#89b169"/><path d="m132.79 177.059c.229-.247.458-.494.688-.741.892-.959 1.986-2.003 3.284-1.866.833.085 1.548.664 2.007 1.369.462.7.703 1.518.944 2.323-1.371-.83-3.196-.826-4.567.004-1.077.656-1.158-.684-2.356-1.089z" fill="#89b169"/><path d="m74.3919 184.435c-.8886-1.749.2854-4.198 2.1992-4.582 1.9138-.385 3.9321 1.425 3.7753 3.384-2.0384-.47-4.2658-.02-5.9745 1.198z" fill="#89b169"/><path d="m77.3711 172.902c-1.5037-.069-3.0958-.166-4.3342-1.029-1.2383-.858-1.8856-2.769-.9126-3.926 1.0132-1.203 3.1038-.77 4.0848.461.973 1.231 1.1258 2.915 1.162 4.494z" fill="#89b169"/><path d="m45.5204 183.079c-.2131-1.724 1.2343-3.469 2.9591-3.566 1.7248-.094 3.3531 1.481 3.325 3.218-2.4565-.109-4.3502-1.178-6.2841.348z" fill="#89b169"/><path d="m138.101 193.686c-.024-1.543-.036-3.138.551-4.559.591-1.425 1.95-2.643 3.482-2.558 1.226.069 2.292.959 2.911 2.028s.868 2.312 1.109 3.526c-3.698.441-4.354 1.121-8.053 1.563z" fill="#e44e35"/><path d="m74.9708 194.24c-.4785.097-.981.195-1.4555.065-.4744-.134-.9006-.571-.8443-1.061.1689-1.226.3418-2.477.8765-3.595.5347-1.117 1.4997-2.097 2.7058-2.319 1.3952-.259 2.8144.542 3.6989 1.66.8845 1.117 1.3348 2.51 1.7731 3.87-2.2515.461-4.503.923-6.7545 1.38z" fill="#e44e35"/><path d="m106.138 169.521c.772-1.967 2.127-3.7 3.848-4.922.936-.664 2.082-1.19 3.196-.927 1.098.259 1.906 1.247 2.268 2.319.361 1.073.357 2.231.345 3.364-3.771-.222-5.898.531-9.657.166z" fill="#e44e35"/><path d="m157.086 181.848c.603 1.174.989 2.462 1.142 3.773-2.058-.198-4.113-.396-6.172-.591-.14-1.105-.273-2.254.057-3.319.333-1.065 1.27-2.024 2.376-2 1.178.024 2.058 1.089 2.597 2.137z" fill="#e44e35"/><path d="m95.3589 175.598c-2.4364.599-4.7924 1.526-6.9836 2.757-.3177-1.36-.6353-2.765-.4262-4.146.2091-1.38 1.0775-2.757 2.4163-3.133 1.2102-.34 2.537.219 3.3934 1.142.8563.919 1.3107 2.149 1.6001 3.38z" fill="#e44e35"/><path d="m112.177 195.734c-.487.215-.796.458-.997.964-.061.149-.044.299.008.441-.008.137.044.279.189.392.249.195.563.292.876.195.362-.109.555-.348.816-.595.62-.595-.088-1.753-.892-1.397z" fill="#724441"/><path d="m111.212 193.321c-.374-.02-.816.008-1.122.235.004.004.012.004.016.008-.153.093-.281.231-.329.409-.137.518.386.943.872.789.418-.133.712-.473.945-.838.189-.295-.093-.587-.382-.603z" fill="#724441"/><path d="m120.23 195.835c-.024-.028-.048-.052-.072-.081-.165-.182-.491-.129-.644.033-.028.028-.056.06-.084.089-.342.356-.068.931.418.915.503-.021.712-.595.382-.956z" fill="#724441"/><path d="m125.372 175.857c-.028-.012-.052-.024-.08-.041-.306-.149-.591-.056-.84.146-.097.077-.161.166-.226.271-.152.256-.04.592.218.721.112.057.217.093.341.109.322.041.599-.06.78-.344.016-.024.032-.048.048-.073.169-.271.041-.651-.241-.789z" fill="#724441"/><path d="m121.621 170.384c-.096.064-.197.133-.293.198-.31.211-.097.704.269.583.113-.036.225-.077.334-.113.546-.187.148-.976-.31-.668z" fill="#724441"/><path d="m71.4408 177.837c-.0241-.008-.0523-.017-.0764-.025-.3056-.093-.579.142-.6795.409l-.0321.089c-.2172.567.5468.923.9649.664.4985-.308.3458-.984-.1769-1.137z" fill="#724441"/><path d="m75.2683 176.962c-.6031-.012-.6031.903.0081.915.6031.012.6031-.899-.0081-.915z" fill="#724441"/><path d="m66.7126 188.156c-.6915-.017-.6875 1.032.0121 1.048.6915.012.6875-1.036-.0121-1.048z" fill="#724441"/><path d="m140.992 180.646c-.45-.158-1.053.401-.848.866.156.365.707 1.008 1.174.725.245-.15.37-.421.374-.704.008-.482-.278-.741-.7-.887z" fill="#724441"/><g clip-path="url(#d)"><path d="m90.1151 55.4176c-3.3731 0-8.6829-.8734-13.5344-1.8401-.7297-.1463-1.2302-.8247-1.1587-1.5709.0316-.3222.0463-.6487.0463-.9794 0-5.7006-4.5843-10.3199-10.237-10.3199-.0462 0-.0904.0021-.1367.0042-1.1229-9.4168-9.0698-16.7115-18.7096-16.7115-7.5179 0-14.0074 4.4392-17.0335 10.8584-.2482.5257-.7886.8416-1.3648.8204-.1493-.0064-.2986-.0085-.45-.0085-7.213 0-13.0591 5.8934-13.0591 13.1648v.0128c0 .6932-.4627 1.2974-1.1335 1.4521-4.60958 1.0536-9.88788 2.6415-11.6312 4.6469-3.30998 3.8117-2.36367 7.0531 7.56417 7.0531h85.26253c.7697 0 1.4132-.6042 1.4489-1.3801.0925-1.9313-.5404-5.2023-5.8734-5.2023z" fill="#fff"/></g><g clip-path="url(#e)"><path d="m215.322 19.8427c-2.108 0-5.426-.5517-8.459-1.1622-.456-.0924-.768-.5208-.724-.9921.02-.2035.029-.4097.029-.6186 0-3.6003-2.865-6.5178-6.398-6.5178-.029 0-.056.0013-.085.0026-.702-5.9474-5.669-10.5546-11.694-10.5546-4.699 0-8.755 2.80368-10.646 6.85791-.155.33205-.493.53155-.853.51816-.093-.00402-.187-.00536-.281-.00536-4.508 0-8.162 3.72219-8.162 8.31469v.008c0 .4378-.289.8194-.708.9171-2.881.6655-6.18 1.6683-7.27 2.9349-2.069 2.4074-1.477 4.4546 4.728 4.4546h53.289c.481 0 .883-.3816.905-.8716.058-1.2198-.337-3.2857-3.671-3.2857z" fill="#fff"/></g></svg>